# xmcd
#
# Track frame offsets: 
#        150
#        17805
#        29259
#        46678
#        63642
#        80677
#        96730
#        110578
#        127134
#        143887
#        162051
#        175067
#
# Disc length: 2641 seconds
#
# Revision: 0
# Processed by: cddbd v1.5.2PL0 Copyright (c) Steve Scherf et al.
# Submitted via: ExactAudioCopyFreeDBPlugin 1.0
#
DISCID=a60a4f0c
DTITLE=East West - East West
DYEAR=2014
DGENRE=Bluegrass
TTITLE0=Getting Lost
TTITLE1=Cluck Old Hen
TTITLE2=Jalapenos
TTITLE3=Where the Soul of Man Never Dies
TTITLE4=Working on a Building
TTITLE5=Talk About Suffering
TTITLE6=B-Complex
TTITLE7=I'm Comming Back But I Don't Know When
TTITLE8=The Ballad of Sally Ann
TTITLE9=Make You Feel My Love
TTITLE10=Wild Bill Jones
TTITLE11=Streetcorner Stranger
EXTD=
EXTT0=
EXTT1=
EXTT2=
EXTT3=
EXTT4=
EXTT5=
EXTT6=
EXTT7=
EXTT8=
EXTT9=
EXTT10=
EXTT11=
PLAYORDER=
